<mxfile host="Electron" agent="Mozilla/5.0 (X11; Linux x86_64) AppleWebKit/537.36 (KHTML, like Gecko) draw.io/26.0.4 Chrome/128.0.6613.186 Electron/32.2.5 Safari/537.36" version="26.0.4">
  <diagram name="第 1 页" id="OJrNbGEae-wg0xS1mxcH">
    <mxGraphModel dx="1114" dy="1938" grid="1" gridSize="10" guides="1" tooltips="1" connect="1" arrows="1" fold="1" page="1" pageScale="1" pageWidth="850" pageHeight="1100" math="0" shadow="0">
      <root>
        <mxCell id="0" />
        <mxCell id="1" parent="0" />
        <mxCell id="5eY98vkKAecWtIB0r0WQ-1" value="" style="rounded=1;whiteSpace=wrap;html=1;strokeColor=#009900;align=center;verticalAlign=middle;fontFamily=Helvetica;fontSize=16;fontColor=default;fillColor=none;dashed=1;strokeWidth=3;" vertex="1" parent="1">
          <mxGeometry x="5" width="350" height="310" as="geometry" />
        </mxCell>
        <mxCell id="zMPhAB8U8SLhc979nUFh-46" value="" style="rounded=1;whiteSpace=wrap;html=1;strokeColor=#CC00CC;align=center;verticalAlign=middle;fontFamily=Helvetica;fontSize=16;fontColor=default;fillColor=none;dashed=1;strokeWidth=3;" parent="1" vertex="1">
          <mxGeometry x="709" y="126" width="140" height="145.6" as="geometry" />
        </mxCell>
        <mxCell id="zMPhAB8U8SLhc979nUFh-17" value="" style="rounded=1;whiteSpace=wrap;html=1;strokeColor=#6666FF;align=center;verticalAlign=middle;fontFamily=Helvetica;fontSize=16;fontColor=default;fillColor=none;dashed=1;strokeWidth=3;" parent="1" vertex="1">
          <mxGeometry x="17" y="16" width="323" height="165" as="geometry" />
        </mxCell>
        <mxCell id="zMPhAB8U8SLhc979nUFh-40" style="edgeStyle=orthogonalEdgeStyle;rounded=0;orthogonalLoop=1;jettySize=auto;html=1;entryX=1;entryY=0.5;entryDx=0;entryDy=0;fontFamily=Helvetica;fontSize=16;fontColor=default;startArrow=classic;startFill=1;exitX=0;exitY=0.5;exitDx=0;exitDy=0;endArrow=none;endFill=0;" parent="1" source="zMPhAB8U8SLhc979nUFh-2" target="zMPhAB8U8SLhc979nUFh-36" edge="1">
          <mxGeometry relative="1" as="geometry">
            <mxPoint x="137" y="121.00000000000006" as="sourcePoint" />
            <Array as="points">
              <mxPoint x="127" y="141" />
              <mxPoint x="127" y="71" />
            </Array>
          </mxGeometry>
        </mxCell>
        <mxCell id="zMPhAB8U8SLhc979nUFh-9" style="edgeStyle=orthogonalEdgeStyle;rounded=0;orthogonalLoop=1;jettySize=auto;html=1;entryX=0;entryY=0.5;entryDx=0;entryDy=0;fontFamily=Helvetica;fontSize=16;fontColor=default;startArrow=classic;startFill=1;" parent="1" source="zMPhAB8U8SLhc979nUFh-2" target="zMPhAB8U8SLhc979nUFh-3" edge="1">
          <mxGeometry relative="1" as="geometry" />
        </mxCell>
        <mxCell id="zMPhAB8U8SLhc979nUFh-39" value="" style="edgeStyle=orthogonalEdgeStyle;rounded=0;orthogonalLoop=1;jettySize=auto;html=1;fontFamily=Helvetica;fontSize=16;fontColor=default;startArrow=classic;startFill=1;endArrow=none;endFill=0;" parent="1" source="zMPhAB8U8SLhc979nUFh-2" target="zMPhAB8U8SLhc979nUFh-37" edge="1">
          <mxGeometry relative="1" as="geometry" />
        </mxCell>
        <mxCell id="zMPhAB8U8SLhc979nUFh-42" style="edgeStyle=orthogonalEdgeStyle;rounded=0;orthogonalLoop=1;jettySize=auto;html=1;entryX=0.5;entryY=1;entryDx=0;entryDy=0;fontFamily=Helvetica;fontSize=16;fontColor=default;" parent="1" source="zMPhAB8U8SLhc979nUFh-2" target="zMPhAB8U8SLhc979nUFh-41" edge="1">
          <mxGeometry relative="1" as="geometry" />
        </mxCell>
        <mxCell id="zMPhAB8U8SLhc979nUFh-2" value="&lt;font face=&quot;Courier New&quot;&gt;&lt;span style=&quot;font-size: 16px;&quot;&gt;Arduino&lt;/span&gt;&lt;/font&gt;&lt;div&gt;&lt;font face=&quot;Courier New&quot;&gt;&lt;span style=&quot;font-size: 16px;&quot;&gt;Board&lt;/span&gt;&lt;/font&gt;&lt;/div&gt;" style="rounded=1;whiteSpace=wrap;html=1;" parent="1" vertex="1">
          <mxGeometry x="147" y="116" width="80" height="50" as="geometry" />
        </mxCell>
        <mxCell id="zMPhAB8U8SLhc979nUFh-11" value="" style="edgeStyle=orthogonalEdgeStyle;rounded=0;orthogonalLoop=1;jettySize=auto;html=1;fontFamily=Helvetica;fontSize=16;fontColor=default;entryX=0;entryY=0.25;entryDx=0;entryDy=0;startArrow=classic;startFill=1;" parent="1" source="zMPhAB8U8SLhc979nUFh-3" target="zMPhAB8U8SLhc979nUFh-10" edge="1">
          <mxGeometry relative="1" as="geometry" />
        </mxCell>
        <mxCell id="zMPhAB8U8SLhc979nUFh-3" value="&lt;font face=&quot;Courier New&quot;&gt;Driver&lt;/font&gt;" style="rounded=1;whiteSpace=wrap;html=1;fontSize=16;" parent="1" vertex="1">
          <mxGeometry x="257" y="126" width="70" height="30" as="geometry" />
        </mxCell>
        <mxCell id="zMPhAB8U8SLhc979nUFh-21" value="" style="edgeStyle=orthogonalEdgeStyle;rounded=0;orthogonalLoop=1;jettySize=auto;html=1;fontFamily=Helvetica;fontSize=16;fontColor=default;exitX=1;exitY=0.25;exitDx=0;exitDy=0;entryX=0;entryY=0.25;entryDx=0;entryDy=0;startArrow=classic;startFill=1;" parent="1" source="zMPhAB8U8SLhc979nUFh-10" target="zMPhAB8U8SLhc979nUFh-20" edge="1">
          <mxGeometry relative="1" as="geometry" />
        </mxCell>
        <mxCell id="zMPhAB8U8SLhc979nUFh-10" value="&lt;font face=&quot;Courier New&quot;&gt;Resource&lt;/font&gt;&lt;div&gt;&lt;font face=&quot;Courier New&quot;&gt;Manager&lt;/font&gt;&lt;/div&gt;" style="rounded=1;whiteSpace=wrap;html=1;fontSize=16;" parent="1" vertex="1">
          <mxGeometry x="367" y="156" width="110" height="50" as="geometry" />
        </mxCell>
        <mxCell id="zMPhAB8U8SLhc979nUFh-13" style="edgeStyle=orthogonalEdgeStyle;rounded=0;orthogonalLoop=1;jettySize=auto;html=1;entryX=0;entryY=0.75;entryDx=0;entryDy=0;fontFamily=Helvetica;fontSize=16;fontColor=default;startArrow=classic;startFill=1;" parent="1" source="zMPhAB8U8SLhc979nUFh-12" target="zMPhAB8U8SLhc979nUFh-10" edge="1">
          <mxGeometry relative="1" as="geometry" />
        </mxCell>
        <mxCell id="zMPhAB8U8SLhc979nUFh-15" value="" style="edgeStyle=orthogonalEdgeStyle;rounded=0;orthogonalLoop=1;jettySize=auto;html=1;fontFamily=Helvetica;fontSize=16;fontColor=default;startArrow=classic;startFill=1;" parent="1" source="zMPhAB8U8SLhc979nUFh-12" target="zMPhAB8U8SLhc979nUFh-14" edge="1">
          <mxGeometry relative="1" as="geometry" />
        </mxCell>
        <mxCell id="zMPhAB8U8SLhc979nUFh-12" value="&lt;div&gt;&lt;font face=&quot;Courier New&quot;&gt;Gazebo&lt;/font&gt;&lt;/div&gt;&lt;font face=&quot;Courier New&quot;&gt;Plugin&lt;/font&gt;" style="rounded=1;whiteSpace=wrap;html=1;fontSize=16;" parent="1" vertex="1">
          <mxGeometry x="257" y="206" width="70" height="50" as="geometry" />
        </mxCell>
        <mxCell id="zMPhAB8U8SLhc979nUFh-14" value="&lt;div&gt;&lt;font face=&quot;Courier New&quot;&gt;Gazebo&lt;/font&gt;&lt;/div&gt;&lt;div&gt;&lt;font face=&quot;Courier New&quot;&gt;Simulator&lt;/font&gt;&lt;/div&gt;" style="rounded=1;whiteSpace=wrap;html=1;fontSize=16;" parent="1" vertex="1">
          <mxGeometry x="107" y="206" width="110" height="50" as="geometry" />
        </mxCell>
        <mxCell id="zMPhAB8U8SLhc979nUFh-16" value="" style="rounded=1;whiteSpace=wrap;html=1;strokeColor=#FF3333;align=center;verticalAlign=middle;fontFamily=Helvetica;fontSize=16;fontColor=default;fillColor=none;dashed=1;strokeWidth=3;" parent="1" vertex="1">
          <mxGeometry x="100" y="196" width="240" height="80" as="geometry" />
        </mxCell>
        <mxCell id="zMPhAB8U8SLhc979nUFh-18" value="&lt;font style=&quot;color: rgb(102, 102, 255);&quot; face=&quot;Courier New&quot;&gt;Real Robot&lt;/font&gt;" style="text;html=1;align=center;verticalAlign=middle;whiteSpace=wrap;rounded=0;fontFamily=Helvetica;fontSize=16;fontColor=default;fillColor=default;" parent="1" vertex="1">
          <mxGeometry x="217" y="71.6" width="120" height="30" as="geometry" />
        </mxCell>
        <mxCell id="zMPhAB8U8SLhc979nUFh-19" value="&lt;font style=&quot;color: rgb(255, 51, 51);&quot; face=&quot;Courier New&quot;&gt;Simulator&lt;/font&gt;" style="text;html=1;align=center;verticalAlign=middle;whiteSpace=wrap;rounded=0;fontFamily=Helvetica;fontSize=16;fontColor=default;fillColor=default;" parent="1" vertex="1">
          <mxGeometry x="167" y="276" width="120" height="30" as="geometry" />
        </mxCell>
        <mxCell id="zMPhAB8U8SLhc979nUFh-26" value="" style="edgeStyle=orthogonalEdgeStyle;rounded=0;orthogonalLoop=1;jettySize=auto;html=1;fontFamily=Helvetica;fontSize=16;fontColor=default;startArrow=classic;startFill=1;" parent="1" source="zMPhAB8U8SLhc979nUFh-20" target="zMPhAB8U8SLhc979nUFh-25" edge="1">
          <mxGeometry relative="1" as="geometry">
            <Array as="points">
              <mxPoint x="679" y="165" />
              <mxPoint x="679" y="165" />
            </Array>
          </mxGeometry>
        </mxCell>
        <mxCell id="zMPhAB8U8SLhc979nUFh-28" value="" style="edgeStyle=orthogonalEdgeStyle;rounded=0;orthogonalLoop=1;jettySize=auto;html=1;fontFamily=Helvetica;fontSize=16;fontColor=default;entryX=0.5;entryY=0;entryDx=0;entryDy=0;endArrow=none;endFill=0;startArrow=classic;startFill=1;strokeColor=#009900;" parent="1" source="zMPhAB8U8SLhc979nUFh-20" target="zMPhAB8U8SLhc979nUFh-27" edge="1">
          <mxGeometry relative="1" as="geometry" />
        </mxCell>
        <mxCell id="zMPhAB8U8SLhc979nUFh-58" style="edgeStyle=orthogonalEdgeStyle;rounded=0;orthogonalLoop=1;jettySize=auto;html=1;entryX=0;entryY=0.5;entryDx=0;entryDy=0;fontFamily=Helvetica;fontSize=16;fontColor=default;startArrow=classic;startFill=1;" parent="1" source="zMPhAB8U8SLhc979nUFh-20" target="zMPhAB8U8SLhc979nUFh-57" edge="1">
          <mxGeometry relative="1" as="geometry" />
        </mxCell>
        <mxCell id="zMPhAB8U8SLhc979nUFh-20" value="&lt;font face=&quot;Courier New&quot;&gt;Controller&lt;/font&gt;&lt;div&gt;&lt;font face=&quot;Courier New&quot;&gt;Manager&lt;/font&gt;&lt;/div&gt;" style="rounded=1;whiteSpace=wrap;html=1;fontSize=16;" parent="1" vertex="1">
          <mxGeometry x="557" y="156" width="110" height="50" as="geometry" />
        </mxCell>
        <mxCell id="zMPhAB8U8SLhc979nUFh-23" value="" style="edgeStyle=orthogonalEdgeStyle;rounded=0;orthogonalLoop=1;jettySize=auto;html=1;fontFamily=Helvetica;fontSize=16;fontColor=default;exitX=1;exitY=0.75;exitDx=0;exitDy=0;entryX=0;entryY=0.75;entryDx=0;entryDy=0;startArrow=classic;startFill=1;" parent="1" source="zMPhAB8U8SLhc979nUFh-10" target="zMPhAB8U8SLhc979nUFh-20" edge="1">
          <mxGeometry relative="1" as="geometry">
            <mxPoint x="487" y="179" as="sourcePoint" />
            <mxPoint x="567" y="179" as="targetPoint" />
          </mxGeometry>
        </mxCell>
        <mxCell id="zMPhAB8U8SLhc979nUFh-49" value="" style="edgeStyle=orthogonalEdgeStyle;rounded=0;orthogonalLoop=1;jettySize=auto;html=1;fontFamily=Helvetica;fontSize=16;fontColor=default;startArrow=classic;startFill=1;endArrow=none;endFill=0;exitX=1;exitY=0.25;exitDx=0;exitDy=0;" parent="1" source="zMPhAB8U8SLhc979nUFh-25" target="zMPhAB8U8SLhc979nUFh-48" edge="1">
          <mxGeometry relative="1" as="geometry" />
        </mxCell>
        <mxCell id="zMPhAB8U8SLhc979nUFh-25" value="&lt;div&gt;&lt;span style=&quot;font-family: &amp;quot;Courier New&amp;quot;; background-color: transparent; color: light-dark(rgb(0, 0, 0), rgb(255, 255, 255));&quot;&gt;DiffDrive&lt;/span&gt;&lt;/div&gt;&lt;div&gt;&lt;span style=&quot;font-family: &amp;quot;Courier New&amp;quot;; background-color: transparent; color: light-dark(rgb(0, 0, 0), rgb(255, 255, 255));&quot;&gt;Controller&lt;/span&gt;&lt;br&gt;&lt;/div&gt;" style="rounded=1;whiteSpace=wrap;html=1;fontSize=16;" parent="1" vertex="1">
          <mxGeometry x="717" y="140.4" width="120" height="50" as="geometry" />
        </mxCell>
        <mxCell id="zMPhAB8U8SLhc979nUFh-32" value="" style="group" parent="1" vertex="1" connectable="0">
          <mxGeometry x="519" y="72.15" width="175" height="54.69999999999999" as="geometry" />
        </mxCell>
        <mxCell id="zMPhAB8U8SLhc979nUFh-30" value="&lt;font style=&quot;line-height: 100%; color: rgb(255, 0, 128);&quot; face=&quot;Courier New&quot;&gt;Yaml&lt;/font&gt;&lt;div style=&quot;line-height: 100%;&quot;&gt;&lt;font style=&quot;color: rgb(255, 0, 128);&quot; face=&quot;Courier New&quot;&gt;cfg: controller&lt;/font&gt;&lt;/div&gt;" style="rounded=1;whiteSpace=wrap;html=1;fontSize=16;strokeColor=none;fillColor=default;" parent="zMPhAB8U8SLhc979nUFh-32" vertex="1">
          <mxGeometry y="4.699999999999989" width="175" height="50" as="geometry" />
        </mxCell>
        <mxCell id="zMPhAB8U8SLhc979nUFh-31" value="" style="html=1;verticalLabelPosition=bottom;align=center;labelBackgroundColor=#ffffff;verticalAlign=top;strokeWidth=2;strokeColor=#FF0080;shadow=0;dashed=0;shape=mxgraph.ios7.icons.edit;rounded=1;fontFamily=Helvetica;fontSize=16;fontColor=default;fillColor=default;" parent="zMPhAB8U8SLhc979nUFh-32" vertex="1">
          <mxGeometry x="122.5" width="29.4" height="29.4" as="geometry" />
        </mxCell>
        <mxCell id="zMPhAB8U8SLhc979nUFh-33" value="" style="group" parent="1" vertex="1" connectable="0">
          <mxGeometry x="524.5" y="287" width="175" height="54.400000000000006" as="geometry" />
        </mxCell>
        <mxCell id="zMPhAB8U8SLhc979nUFh-27" value="&lt;font style=&quot;color: rgb(0, 153, 0); line-height: 100%;&quot; face=&quot;Courier New&quot;&gt;URDF&lt;/font&gt;&lt;div style=&quot;line-height: 100%;&quot;&gt;&lt;font style=&quot;color: rgb(0, 153, 0);&quot; face=&quot;Courier New&quot;&gt;cfg: robot,&lt;/font&gt;&lt;span style=&quot;color: light-dark(rgb(0, 153, 0), rgb(0, 153, 0)); font-family: &amp;quot;Courier New&amp;quot;; background-color: transparent;&quot;&gt;driver&lt;/span&gt;&lt;/div&gt;" style="rounded=1;whiteSpace=wrap;html=1;fontSize=16;strokeColor=none;fillColor=default;" parent="zMPhAB8U8SLhc979nUFh-33" vertex="1">
          <mxGeometry y="4.400000000000006" width="175" height="50" as="geometry" />
        </mxCell>
        <mxCell id="zMPhAB8U8SLhc979nUFh-29" value="" style="html=1;verticalLabelPosition=bottom;align=center;labelBackgroundColor=#ffffff;verticalAlign=top;strokeWidth=2;strokeColor=#009900;shadow=0;dashed=0;shape=mxgraph.ios7.icons.edit;rounded=1;fontFamily=Helvetica;fontSize=16;fontColor=default;fillColor=default;" parent="zMPhAB8U8SLhc979nUFh-33" vertex="1">
          <mxGeometry x="115" width="29.4" height="29.4" as="geometry" />
        </mxCell>
        <mxCell id="zMPhAB8U8SLhc979nUFh-35" style="edgeStyle=orthogonalEdgeStyle;rounded=0;orthogonalLoop=1;jettySize=auto;html=1;fontFamily=Helvetica;fontSize=16;fontColor=default;strokeColor=#FF0080;exitX=0.5;exitY=1;exitDx=0;exitDy=0;" parent="1" source="zMPhAB8U8SLhc979nUFh-30" edge="1">
          <mxGeometry relative="1" as="geometry">
            <mxPoint x="607" y="156" as="targetPoint" />
            <Array as="points">
              <mxPoint x="607" y="139" />
              <mxPoint x="607" y="156" />
            </Array>
          </mxGeometry>
        </mxCell>
        <mxCell id="zMPhAB8U8SLhc979nUFh-36" value="&lt;font face=&quot;Courier New&quot;&gt;Motor1&lt;/font&gt;" style="rounded=1;whiteSpace=wrap;html=1;fontSize=16;" parent="1" vertex="1">
          <mxGeometry x="37" y="56" width="70" height="30" as="geometry" />
        </mxCell>
        <mxCell id="zMPhAB8U8SLhc979nUFh-37" value="&lt;font face=&quot;Courier New&quot; style=&quot;font-size: 16px;&quot;&gt;Motor2&lt;/font&gt;" style="rounded=1;whiteSpace=wrap;html=1;" parent="1" vertex="1">
          <mxGeometry x="37" y="146" width="70" height="30" as="geometry" />
        </mxCell>
        <mxCell id="zMPhAB8U8SLhc979nUFh-43" style="edgeStyle=orthogonalEdgeStyle;rounded=0;orthogonalLoop=1;jettySize=auto;html=1;entryX=0.5;entryY=0;entryDx=0;entryDy=0;fontFamily=Helvetica;fontSize=16;fontColor=default;" parent="1" source="zMPhAB8U8SLhc979nUFh-41" target="zMPhAB8U8SLhc979nUFh-36" edge="1">
          <mxGeometry relative="1" as="geometry">
            <Array as="points">
              <mxPoint x="72" y="36" />
            </Array>
          </mxGeometry>
        </mxCell>
        <mxCell id="zMPhAB8U8SLhc979nUFh-44" style="edgeStyle=orthogonalEdgeStyle;rounded=0;orthogonalLoop=1;jettySize=auto;html=1;entryX=0.5;entryY=0;entryDx=0;entryDy=0;fontFamily=Helvetica;fontSize=16;fontColor=default;jumpStyle=arc;" parent="1" source="zMPhAB8U8SLhc979nUFh-41" target="zMPhAB8U8SLhc979nUFh-37" edge="1">
          <mxGeometry relative="1" as="geometry">
            <Array as="points">
              <mxPoint x="157" y="96" />
              <mxPoint x="72" y="96" />
            </Array>
          </mxGeometry>
        </mxCell>
        <mxCell id="zMPhAB8U8SLhc979nUFh-41" value="&lt;font face=&quot;Courier New&quot;&gt;&lt;span style=&quot;font-size: 16px;&quot;&gt;Driver&lt;/span&gt;&lt;/font&gt;&lt;div&gt;&lt;font face=&quot;Courier New&quot;&gt;&lt;span style=&quot;font-size: 16px;&quot;&gt;Module&lt;/span&gt;&lt;/font&gt;&lt;/div&gt;" style="rounded=1;whiteSpace=wrap;html=1;" parent="1" vertex="1">
          <mxGeometry x="147" y="21.6" width="80" height="50" as="geometry" />
        </mxCell>
        <mxCell id="zMPhAB8U8SLhc979nUFh-47" value="&lt;font style=&quot;color: rgb(204, 0, 204);&quot; face=&quot;Courier New&quot;&gt;Controllers&lt;/font&gt;" style="text;html=1;align=center;verticalAlign=middle;whiteSpace=wrap;rounded=0;fontFamily=Helvetica;fontSize=16;fontColor=default;fillColor=default;" parent="1" vertex="1">
          <mxGeometry x="727" y="88" width="120" height="30" as="geometry" />
        </mxCell>
        <mxCell id="zMPhAB8U8SLhc979nUFh-51" value="" style="edgeStyle=orthogonalEdgeStyle;rounded=0;orthogonalLoop=1;jettySize=auto;html=1;fontFamily=Helvetica;fontSize=16;fontColor=default;startArrow=classic;startFill=1;endArrow=none;endFill=0;" parent="1" source="zMPhAB8U8SLhc979nUFh-48" target="zMPhAB8U8SLhc979nUFh-50" edge="1">
          <mxGeometry relative="1" as="geometry" />
        </mxCell>
        <mxCell id="zMPhAB8U8SLhc979nUFh-48" value="&lt;font style=&quot;color: rgb(204, 102, 0);&quot; face=&quot;Courier New&quot;&gt;/cmd_vel_unstamped&lt;/font&gt;" style="rounded=1;whiteSpace=wrap;html=1;fontSize=16;" parent="1" vertex="1">
          <mxGeometry x="859" y="88" width="184" height="23" as="geometry" />
        </mxCell>
        <mxCell id="zMPhAB8U8SLhc979nUFh-50" value="&lt;font style=&quot;line-height: 100%;&quot; face=&quot;Courier New&quot;&gt;Keyboard&lt;/font&gt;&lt;div style=&quot;line-height: 100%;&quot;&gt;&lt;font face=&quot;Courier New&quot;&gt;or JoyStick&lt;/font&gt;&lt;/div&gt;" style="rounded=1;whiteSpace=wrap;html=1;fontSize=16;" parent="1" vertex="1">
          <mxGeometry x="892" y="26.6" width="118" height="40" as="geometry" />
        </mxCell>
        <mxCell id="zMPhAB8U8SLhc979nUFh-52" value="" style="fontColor=#0066CC;verticalAlign=top;verticalLabelPosition=bottom;labelPosition=center;align=center;html=1;outlineConnect=0;fillColor=#CCCCCC;strokeColor=#6881B3;gradientColor=none;gradientDirection=north;strokeWidth=2;shape=mxgraph.networks.gamepad;rounded=1;fontFamily=Helvetica;fontSize=16;" parent="1" vertex="1">
          <mxGeometry x="829" y="16" width="60" height="40" as="geometry" />
        </mxCell>
        <mxCell id="zMPhAB8U8SLhc979nUFh-60" value="" style="edgeStyle=orthogonalEdgeStyle;rounded=0;orthogonalLoop=1;jettySize=auto;html=1;fontFamily=Helvetica;fontSize=16;fontColor=default;" parent="1" source="zMPhAB8U8SLhc979nUFh-57" target="zMPhAB8U8SLhc979nUFh-59" edge="1">
          <mxGeometry relative="1" as="geometry" />
        </mxCell>
        <mxCell id="zMPhAB8U8SLhc979nUFh-57" value="&lt;div&gt;&lt;font face=&quot;Courier New&quot;&gt;JointState&lt;/font&gt;&lt;/div&gt;&lt;div&gt;&lt;font face=&quot;Courier New&quot;&gt;Broadcaster&lt;/font&gt;&lt;/div&gt;" style="rounded=1;whiteSpace=wrap;html=1;fontSize=16;" parent="1" vertex="1">
          <mxGeometry x="719" y="206" width="120" height="50" as="geometry" />
        </mxCell>
        <mxCell id="zMPhAB8U8SLhc979nUFh-61" style="edgeStyle=orthogonalEdgeStyle;rounded=0;orthogonalLoop=1;jettySize=auto;html=1;fontFamily=Helvetica;fontSize=16;fontColor=default;entryX=0.5;entryY=0;entryDx=0;entryDy=0;" parent="1" source="zMPhAB8U8SLhc979nUFh-59" target="zMPhAB8U8SLhc979nUFh-62" edge="1">
          <mxGeometry relative="1" as="geometry">
            <mxPoint x="951" y="279" as="targetPoint" />
          </mxGeometry>
        </mxCell>
        <mxCell id="zMPhAB8U8SLhc979nUFh-59" value="&lt;font style=&quot;color: rgb(204, 102, 0);&quot; face=&quot;Courier New&quot;&gt;/joint_states&lt;/font&gt;" style="rounded=1;whiteSpace=wrap;html=1;fontSize=16;" parent="1" vertex="1">
          <mxGeometry x="881" y="214.5" width="140" height="33" as="geometry" />
        </mxCell>
        <mxCell id="zMPhAB8U8SLhc979nUFh-62" value="&lt;font face=&quot;Courier New&quot;&gt;rviz2 &lt;font style=&quot;color: rgb(255, 0, 0);&quot;&gt;(DEBUG)&lt;/font&gt;&lt;/font&gt;" style="rounded=1;whiteSpace=wrap;html=1;fontSize=16;" parent="1" vertex="1">
          <mxGeometry x="881" y="299.7" width="140" height="33" as="geometry" />
        </mxCell>
        <mxCell id="zMPhAB8U8SLhc979nUFh-63" style="edgeStyle=orthogonalEdgeStyle;rounded=0;orthogonalLoop=1;jettySize=auto;html=1;entryX=0;entryY=0.5;entryDx=0;entryDy=0;fontFamily=Helvetica;fontSize=16;fontColor=default;strokeColor=#009900;" parent="1" source="zMPhAB8U8SLhc979nUFh-27" target="zMPhAB8U8SLhc979nUFh-62" edge="1">
          <mxGeometry relative="1" as="geometry" />
        </mxCell>
        <mxCell id="X9cZ43xNdGiV18Ejuqts-6" style="edgeStyle=orthogonalEdgeStyle;rounded=0;orthogonalLoop=1;jettySize=auto;html=1;" parent="1" source="X9cZ43xNdGiV18Ejuqts-1" edge="1">
          <mxGeometry relative="1" as="geometry">
            <mxPoint x="99" y="245.25" as="targetPoint" />
          </mxGeometry>
        </mxCell>
        <mxCell id="X9cZ43xNdGiV18Ejuqts-1" value="&lt;font style=&quot;line-height: 100%; font-size: 16px;&quot; face=&quot;Courier New&quot;&gt;Choose one&lt;/font&gt;" style="ellipse;whiteSpace=wrap;html=1;aspect=fixed;" parent="1" vertex="1">
          <mxGeometry x="17" y="214.5" width="61.5" height="61.5" as="geometry" />
        </mxCell>
        <mxCell id="X9cZ43xNdGiV18Ejuqts-5" style="edgeStyle=orthogonalEdgeStyle;rounded=0;orthogonalLoop=1;jettySize=auto;html=1;entryX=0.096;entryY=1.016;entryDx=0;entryDy=0;entryPerimeter=0;" parent="1" source="X9cZ43xNdGiV18Ejuqts-1" target="zMPhAB8U8SLhc979nUFh-17" edge="1">
          <mxGeometry relative="1" as="geometry" />
        </mxCell>
        <mxCell id="5eY98vkKAecWtIB0r0WQ-2" value="&lt;font style=&quot;line-height: 100%; color: rgb(0, 153, 0);&quot; face=&quot;Courier New&quot;&gt;Hardware Interface&lt;/font&gt;" style="text;html=1;align=center;verticalAlign=middle;whiteSpace=wrap;rounded=0;fontFamily=Helvetica;fontSize=16;fontColor=default;fillColor=default;" vertex="1" parent="1">
          <mxGeometry x="118.5" y="311.4" width="120" height="38.6" as="geometry" />
        </mxCell>
      </root>
    </mxGraphModel>
  </diagram>
</mxfile>
